<?xml version="1.0" standalone="no"?><!-- Generator: Gravit.io --><svg xmlns="http://www.w3.org/2000/svg" xmlns:xlink="http://www.w3.org/1999/xlink" style="isolation:isolate" viewBox="0 0 1080 1080" width="1080" height="1080"><defs><clipPath id="_clipPath_vN9zhyFZ7wFyQk7hJRfirDzqnA8rz7WS"><rect width="1080" height="1080"/></clipPath></defs><g clip-path="url(#_clipPath_vN9zhyFZ7wFyQk7hJRfirDzqnA8rz7WS)"><path d=" M 17.676 540 C 17.676 251.721 251.721 17.676 540 17.676 C 828.279 17.676 1062.324 251.721 1062.324 540 C 1062.324 828.279 828.279 1062.324 540 1062.324 C 251.721 1062.324 17.676 828.279 17.676 540 Z " fill="rgb(243,87,61)"/><g id="Group"><g id="Group"><path d=" M 540 134 L 729.87 462.87 L 919.75 791.74 L 540 791.74 L 160.25 791.74 L 350.13 462.87 L 540 134 Z  M 540 156 L 720.35 468.37 L 900.7 780.74 L 540 780.74 L 179.3 780.74 L 359.65 468.37 L 540 156 Z " fill-rule="evenodd" fill="rgb(235,235,235)"/><path d=" M 540 935 L 314.036 700.745 L 224.148 387.928 L 540 309.365 L 855.852 387.928 L 765.964 700.745 L 540 935 Z " fill="rgb(235,235,235)"/><polygon points="654.982,772.351,425.018,772.351,310.036,573.197,425.018,374.042,654.982,374.042,769.964,573.197" fill="rgb(243,87,61)"/><polygon points="540,374.042,712.473,672.774,367.527,672.774" fill="rgb(235,235,235)"/><path d=" M 491.014 573.197 C 491.014 546.161 512.964 524.211 540 524.211 C 567.036 524.211 588.986 546.161 588.986 573.197 C 588.986 600.233 567.036 622.183 540 622.183 C 512.964 622.183 491.014 600.233 491.014 573.197 Z " fill="rgb(243,87,61)"/></g></g></g></svg>