<?xml version="1.0" encoding="utf-8"?>
<!-- Generator: Adobe Illustrator 24.0.0, SVG Export Plug-In . SVG Version: 6.00 Build 0)  -->
<svg version="1.1" id="Layer_1" xmlns="http://www.w3.org/2000/svg" xmlns:xlink="http://www.w3.org/1999/xlink" x="0px" y="0px"
	 viewBox="0 0 512 512" style="enable-background:new 0 0 512 512;" xml:space="preserve">
<style type="text/css">
	.st0{fill:#DC3023;}
	.st1{fill:#FFFFFF;}
	.st2{fill:#DC3023;stroke:#FFFFFF;stroke-width:6;stroke-miterlimit:10;}
	.st3{fill:#FFFFFF;stroke:#DC3023;stroke-width:6;stroke-miterlimit:10;}
</style>
<g>
	<g>
		<g>
			<g>
				<g>
					<g id="XMLID_1735_">
						<g id="XMLID_1736_">
							<g id="XMLID_1737_">
								<g id="XMLID_1738_">
									<g id="XMLID_1785_">
										<g id="XMLID_1839_">
											<g id="XMLID_1840_">
												<g id="XMLID_1841_">
													<g id="XMLID_1842_">
														<g id="XMLID_1843_">
															<g id="XMLID_1844_">
																<g id="XMLID_1845_">
																	<g id="XMLID_1888_">
																		<g id="XMLID_1889_">
																			<g id="XMLID_2458_">
																				<path class="st0" d="M0,256C0,114.6,114.6,0,256,0s256,114.6,256,256c0,59-20,113.4-53.6,156.7
																					c-46.8,60.4-120.1,13.1-202.4,13.1s-155.6,47.3-202.4-13.1C20,369.4,0,315,0,256z"/>
																			</g>
																		</g>
																	</g>
																</g>
															</g>
														</g>
													</g>
												</g>
											</g>
										</g>
									</g>
								</g>
							</g>
						</g>
					</g>
				</g>
			</g>
		</g>
	</g>
	<g>
		<g>
			<path class="st1" d="M458.4,399.8v13c-41.7,53.8-104.4,90.5-175.7,97.9c-8.8,0.9-17.7,1.4-26.7,1.4s-17.9-0.5-26.7-1.4
				c-71.4-7.4-134-44.1-175.7-97.9v-13c0-41.4,34.3-74.9,76.5-74.9h251.8C424.2,324.8,458.4,358.4,458.4,399.8L458.4,399.8z"/>
		</g>
		<path class="st2" d="M230.5,461.3c-14.1,0-25.5-11.4-25.5-25.5v-89.9H256v89.9C256,449.9,244.6,461.3,230.5,461.3z"/>
		<path class="st2" d="M296.7,354H213c-31,0-56.3-25.3-56.3-56.3v-0.9c0-13.3,10.9-24.1,24.1-24.1h148c13.3,0,24.1,10.9,24.1,24.1
			v0.9C353,328.7,327.7,354,296.7,354z"/>
		<path class="st3" d="M349.9,155.8c-4-60.2-52.7-82.5-93.9-82.5s-89.9,22.3-93.9,82.5c-10.7,2.1-18.2,16-17,27.3l1.8,25.7
			c1.3,11.9,11.7,20.5,23.2,19.2l2-0.2c23.5,63.2,60.5,69.8,83.9,73.5c23.4-3.7,60.4-10.3,83.9-73.5l2,0.2
			c11.5,1.3,21.9-7.4,23.2-19.2l1.8-25.7C368.1,171.8,360.5,157.9,349.9,155.8L349.9,155.8z"/>
		<g>
			<path class="st1" d="M336.3,211.9c-0.1,0-0.2,0-0.3,0c-1.3-0.1-2.3-1-2.6-2.3l-10.9-44.2c-2-8.3-9.4-14.1-17.9-14.1
				c-1.8,0-3.5,0.3-5.3,0.8l-16.8,5c-8.6,2.6-17.6,3.9-26.6,3.9c-9,0-17.9-1.3-26.6-3.9l-16.8-5c-1.7-0.5-3.5-0.8-5.3-0.8
				c-8.5,0-15.9,5.8-17.9,14.1l-10.9,44.2c-0.3,1.2-1.4,2.2-2.6,2.3c-0.1,0-0.2,0-0.3,0c-1.2,0-2.3-0.7-2.7-1.8l-10.5-23.5
				c-7.1-16-9.3-33.5-6.3-50.7c5.4-30.5,26.8-56.1,55.9-66.8c14.1-5.2,28.9-7.8,43.9-7.8s29.8,2.6,43.9,7.8
				c29.1,10.7,50.5,36.3,55.9,66.8c3,17.2,0.9,34.8-6.3,50.7L339,210.1C338.6,211.2,337.5,211.9,336.3,211.9z"/>
			<path class="st0" d="M256,64.3c14.5,0,29.1,2.5,42.9,7.6h0c28.2,10.4,48.7,34.9,53.9,64.5c2.9,16.6,0.8,33.6-6,49l-10.5,23.5
				l-10.9-44.2c-2.4-9.8-11.2-16.3-20.8-16.3c-2,0-4.1,0.3-6.1,0.9l-16.8,5c-8.4,2.5-17,3.7-25.7,3.7s-17.3-1.2-25.7-3.7l-16.8-5
				c-2-0.6-4.1-0.9-6.1-0.9c-9.6,0-18.4,6.5-20.8,16.3l-10.9,44.2l-10.5-23.5c-6.9-15.4-9-32.4-6-49c5.2-29.6,25.8-54.2,53.9-64.5
				C226.9,66.8,241.5,64.3,256,64.3 M256,58.3c-15.4,0-30.5,2.7-45,8c-30.1,11.1-52.2,37.6-57.8,69.1c-3.1,17.8-0.9,35.9,6.5,52.5
				l10.5,23.5c1,2.2,3.1,3.6,5.5,3.6c0.2,0,0.4,0,0.5,0c2.6-0.2,4.7-2.1,5.3-4.5l10.9-44.2c1.7-6.9,7.9-11.8,15-11.8
				c1.5,0,3,0.2,4.4,0.6l16.8,5c8.9,2.6,18.1,4,27.4,4c9.3,0,18.5-1.3,27.4-4l16.8-5c1.4-0.4,2.9-0.6,4.4-0.6
				c7.1,0,13.3,4.8,15,11.8l10.9,44.2c0.6,2.5,2.7,4.3,5.3,4.5c0.2,0,0.4,0,0.5,0c2.3,0,4.5-1.4,5.5-3.6l10.5-23.5
				c7.4-16.5,9.6-34.7,6.5-52.5c-5.6-31.6-27.7-58.1-57.8-69.1C286.5,61,271.4,58.3,256,58.3L256,58.3z"/>
		</g>
		<g>
			<path class="st0" d="M169.7,84.7l0.9-3.1c0.2-0.6,4.4-14,17-28.7c11.6-13.4,32.7-30.4,67.8-34.9l0.2,0c0.9-0.1,1.8-0.2,2.7-0.3
				c5.6-0.6,11.2-0.9,16.7-0.9c12.2,0,24.4,1.5,36.2,4.5l0.7,0.2c8.4,2.2,16.8,5.1,24.9,8.8c26.7,12.1,47,29.9,63.4,45.8l3.6,3.5
				l-0.1,0l0.1,0.1l-4.8,1.5c-0.1,0-6.9,2.1-15,6.1c-0.4,0.2-1.2,0.6-1.2,0.6l-1.1,0.6l-1.1,0.6c-0.3,0.2-1.1,0.6-1.1,0.6
				c-0.3,0.2-0.6,0.3-0.9,0.5l-1,0.6l-1,0.6l-1,0.6l-0.9,0.6c-0.8,0.5-1.5,1-2.3,1.6l-1.2,0.8c-0.2,0.2-0.9,0.7-0.9,0.7
				c-0.2,0.2-0.8,0.7-0.8,0.7c-1.1,0.9-2.1,1.8-3.1,2.7l-2.2-2.1l2.1,2.2c-0.2,0.2-0.5,0.4-0.7,0.7l-2.3-2l2.1,2.1
				c-0.2,0.2-0.4,0.5-0.7,0.7c-1.2,1.3-2.3,2.6-3.2,3.9l-0.1,0.1c-0.2,0.2-0.3,0.5-0.5,0.7c-0.9,1.4-1.6,2.8-2.2,4.2l0,0.1
				c-0.1,0.3-0.2,0.5-0.3,0.8l-2.9-0.8l2.8,1c-0.1,0.3-0.2,0.5-0.3,0.8c-0.2,0.6-0.3,1.2-0.4,1.8c-0.1,0.4-0.2,0.9-0.2,1.4
				c0,0.5-0.1,0.9-0.1,1.3l0,0.1c0,0.5,0,0.9,0,1.3l0,0.1c0,0.9,0.2,1.9,0.3,2.9l0,0.2c0.1,0.4,0.2,0.8,0.3,1.2l0.1,0.3
				c0.1,0.4,0.2,0.8,0.4,1.2l0.1,0.3c0.2,0.5,0.4,1,0.6,1.5l2.3,5.5L169.7,84.7z"/>
			<path class="st1" d="M275,19.8c12.7,0,24.5,1.6,35.4,4.4c0.2,0,0.4,0.1,0.6,0.1c0,0,0.1,0,0.1,0c8.7,2.2,16.8,5.2,24.4,8.6
				c27.5,12.4,48.1,31.2,62.5,45.2c0,0,0,0,0,0c0,0,0,0,0,0c0,0-7,2.1-15.5,6.3c0,0,0,0-0.1,0c-0.3,0.2-0.6,0.3-1,0.5
				c-0.1,0-0.1,0.1-0.2,0.1c-0.3,0.1-0.6,0.3-0.8,0.4c-0.1,0-0.2,0.1-0.3,0.1c-0.3,0.1-0.5,0.3-0.8,0.4c-0.1,0-0.2,0.1-0.3,0.1
				c-0.3,0.2-0.7,0.4-1,0.6c-0.1,0-0.1,0.1-0.2,0.1c-0.3,0.2-0.6,0.3-0.9,0.5c-0.2,0.1-0.3,0.2-0.5,0.3c-0.2,0.1-0.4,0.2-0.6,0.3
				c-0.2,0.1-0.4,0.2-0.5,0.3c-0.2,0.1-0.3,0.2-0.5,0.3c-0.2,0.1-0.4,0.2-0.6,0.4c-0.1,0.1-0.3,0.2-0.4,0.3
				c-0.2,0.1-0.4,0.3-0.6,0.4c-0.1,0.1-0.2,0.1-0.3,0.2c-0.8,0.5-1.6,1.1-2.4,1.6c-0.1,0.1-0.1,0.1-0.2,0.2
				c-0.2,0.2-0.5,0.4-0.7,0.5c-0.1,0.1-0.2,0.1-0.3,0.2c-0.2,0.2-0.5,0.4-0.7,0.5c-0.1,0.1-0.2,0.1-0.2,0.2
				c-0.2,0.2-0.5,0.4-0.7,0.6c0,0-0.1,0.1-0.1,0.1c-1.1,0.9-2.2,1.9-3.3,2.9c0,0-0.1,0.1-0.1,0.1c-0.2,0.2-0.5,0.5-0.7,0.7
				c0,0-0.1,0.1-0.1,0.1c-0.2,0.2-0.5,0.5-0.7,0.7c0,0,0,0-0.1,0.1c-1.3,1.3-2.4,2.7-3.4,4.2c0,0,0,0.1-0.1,0.1
				c-0.2,0.3-0.4,0.6-0.6,0.8c0,0,0,0.1-0.1,0.1c-1,1.5-1.8,3-2.4,4.7c0,0,0,0.1,0,0.1c-0.1,0.3-0.2,0.6-0.3,0.9c0,0,0,0.1,0,0.1
				c-0.1,0.3-0.2,0.6-0.3,0.9c0,0,0,0,0,0.1c-0.2,0.7-0.4,1.4-0.5,2c-0.1,0.5-0.2,1-0.2,1.6c0,0,0,0,0,0c-0.1,0.5-0.1,1-0.1,1.5
				c0,0.1,0,0.1,0,0.2c0,0.5,0,0.9,0,1.4c0,0.1,0,0.1,0,0.2c0,1.1,0.2,2.2,0.4,3.3c0,0.1,0,0.2,0.1,0.2c0.1,0.5,0.2,0.9,0.3,1.4
				c0,0.1,0.1,0.2,0.1,0.4c0.1,0.5,0.3,0.9,0.4,1.4c0,0.1,0.1,0.2,0.1,0.3c0.2,0.6,0.4,1.1,0.7,1.7l-8.9-2.1L173.5,82.5
				c0,0,16.2-53.1,82.5-61.5v0c0.9-0.1,1.7-0.2,2.6-0.3C264.2,20.1,269.7,19.8,275,19.8 M275,13.8c-5.6,0-11.4,0.3-17.1,0.9
				c-1,0.1-1.9,0.2-2.8,0.3l-0.2,0c-1.1,0.1-2.1,0.3-3.2,0.4l-1.8,0.3v0c-33,5.5-53.3,22-64.6,35.2c-13,15.1-17.4,29.2-17.6,29.8
				l-1.9,6.1l6.2,1.5l174.2,41.6l8.9,2.1l11.5,2.7l-4.6-10.9c-0.2-0.4-0.4-0.9-0.5-1.4l0-0.1l-0.1-0.2c-0.1-0.4-0.2-0.7-0.3-1.1
				l-0.1-0.3c-0.1-0.4-0.2-0.7-0.2-1.1l0-0.2c-0.2-0.8-0.2-1.6-0.3-2.4l0-0.1c0-0.3,0-0.7,0-1l0-0.2c0-0.4,0-0.7,0.1-1.1l0-0.1l0,0
				c0-0.4,0.1-0.7,0.2-1.1c0.1-0.5,0.2-1,0.4-1.5l0,0l0,0c0.1-0.2,0.1-0.4,0.2-0.7l0-0.1c0.1-0.2,0.2-0.5,0.3-0.7l0,0l0-0.1
				c0.5-1.2,1.1-2.4,1.9-3.6l0,0l0,0c0.2-0.2,0.3-0.5,0.5-0.7l0,0l0-0.1c0.8-1.2,1.8-2.4,2.9-3.5l0,0l0,0c0.2-0.2,0.4-0.4,0.6-0.6
				l0.1-0.1c0.2-0.2,0.4-0.4,0.6-0.6l0.1-0.1c0.9-0.9,1.9-1.7,2.9-2.6l0.1-0.1c0.2-0.2,0.5-0.4,0.7-0.6l0.1,0l0.2-0.1
				c0.2-0.2,0.4-0.3,0.6-0.5l0.2-0.1l0,0l0,0c0.2-0.2,0.4-0.3,0.7-0.5l0.1-0.1l0.1-0.1c0.7-0.5,1.4-1,2.2-1.5l0.1-0.1l0.2-0.1
				c0.2-0.1,0.4-0.2,0.6-0.4l0.1,0l0.4-0.2c0.2-0.1,0.4-0.2,0.5-0.3l0.5-0.3l0.5-0.3l0.5-0.3l0.1-0.1l0.3-0.2
				c0.3-0.2,0.6-0.3,0.9-0.5l0.1,0l0.1,0c0.3-0.2,0.6-0.4,1-0.5l0.1-0.1l0.1-0.1c0.3-0.1,0.5-0.3,0.8-0.4l0.2-0.1l0.1,0
				c0.3-0.1,0.5-0.3,0.8-0.4l0.2-0.1c0.3-0.2,0.6-0.3,0.9-0.5l0,0l0,0c7.8-3.9,14.5-5.9,14.5-6l0.5-0.2l9.3-2.8l-0.1-0.1l0.1,0
				l-6.9-6.6l-0.5-0.5c-16.6-16-37.2-34.1-64.2-46.3c-8.3-3.7-16.8-6.8-25.3-9l-0.1,0c-0.1,0-0.3-0.1-0.4-0.1l-0.2-0.1
				C299.9,15.4,287.5,13.8,275,13.8L275,13.8z"/>
		</g>
		<g>
			<g>
				<path class="st1" d="M350.5,161.2c-0.7,0-1.4,0-2.1-0.1c-0.8-0.1-1.6-0.2-2.4-0.3L167.5,126c-12.6-2.5-20.9-14.7-18.5-27.4
					l1-5.2c2.1-11,11.8-18.9,22.9-18.9c1.5,0,3,0.1,4.4,0.4L356,109.7c12.6,2.5,20.9,14.7,18.5,27.4l-1,5.2
					c-1.3,6.7-5.5,12.5-11.5,15.9C358.5,160.1,354.5,161.2,350.5,161.2L350.5,161.2z"/>
				<path class="st0" d="M173,77.5c1.3,0,2.6,0.1,3.9,0.4l178.6,34.7c11,2.1,18.2,12.9,16.1,23.9l-1,5.2c-1.2,6.1-5,11-10,13.8
					c-3,1.7-6.4,2.7-10,2.7c-0.6,0-1.2,0-1.8-0.1c-0.7-0.1-1.4-0.2-2.1-0.3l-178.6-34.7c-11-2.1-18.2-12.9-16.1-23.9l1-5.2
					C154.9,84.3,163.4,77.5,173,77.5 M173,71.5c-12.6,0-23.5,9-25.9,21.3l-1,5.2c-1.3,6.9,0.1,13.9,4,19.8
					c3.9,5.9,9.9,9.8,16.8,11.2l178.6,34.7c0.9,0.2,1.8,0.3,2.7,0.4c0.8,0.1,1.6,0.1,2.3,0.1c4.5,0,9-1.2,13-3.4
					c6.8-3.8,11.5-10.3,12.9-17.9l1-5.2c1.3-6.9-0.1-13.9-4-19.8c-3.9-5.9-9.9-9.8-16.8-11.2L178,72C176.3,71.7,174.6,71.5,173,71.5
					L173,71.5z"/>
			</g>
			<g>
				<path class="st1" d="M394.4,114.8c-1.5,0-3-0.1-4.5-0.4c-15.1-2.5-25.5-16.8-23-31.9c2.2-13.5,13.7-23.4,27.4-23.4
					c1.5,0,3,0.1,4.5,0.4c7.3,1.2,13.8,5.2,18.1,11.2c4.3,6,6.1,13.4,4.9,20.7C419.7,105,408.1,114.8,394.4,114.8
					C394.4,114.8,394.4,114.8,394.4,114.8z"/>
				<path class="st0" d="M394.4,62.1c1.3,0,2.7,0.1,4,0.3c13.5,2.2,22.7,14.9,20.5,28.5c-2,12.2-12.5,20.8-24.5,20.8
					c-1.3,0-2.7-0.1-4-0.3c-13.5-2.2-22.7-14.9-20.5-28.5C371.9,70.8,382.4,62.1,394.4,62.1 M394.4,56.1c-15.2,0-28,10.9-30.4,25.9
					c-1.3,8.1,0.6,16.3,5.4,23c4.8,6.7,11.9,11.1,20.1,12.4c1.6,0.3,3.3,0.4,5,0.4c15.2,0,28-10.9,30.4-25.9
					c2.7-16.8-8.7-32.6-25.5-35.4C397.7,56.3,396,56.1,394.4,56.1L394.4,56.1z"/>
			</g>
		</g>
	</g>
</g>
<g>
	<path class="st0" d="M256,10c33.2,0,65.4,6.5,95.8,19.3c29.3,12.4,55.6,30.1,78.2,52.7s40.3,48.9,52.7,78.2
		c12.8,30.3,19.3,62.5,19.3,95.8s-6.5,65.4-19.3,95.8c-12.4,29.3-30.1,55.6-52.7,78.2s-48.9,40.3-78.2,52.7
		C321.4,495.5,289.2,502,256,502s-65.4-6.5-95.8-19.3c-29.3-12.4-55.6-30.1-78.2-52.7S41.7,381,29.3,351.8
		C16.5,321.4,10,289.2,10,256s6.5-65.4,19.3-95.8c12.4-29.3,30.1-55.6,52.7-78.2s48.9-40.3,78.2-52.7C190.6,16.5,222.8,10,256,10
		 M256,0C114.6,0,0,114.6,0,256s114.6,256,256,256s256-114.6,256-256S397.4,0,256,0L256,0z"/>
</g>
</svg>
