<?xml version="1.0" encoding="utf-8"?>
<!-- Generator: Adobe Illustrator 24.0.0, SVG Export Plug-In . SVG Version: 6.00 Build 0)  -->
<svg version="1.1" xmlns="http://www.w3.org/2000/svg" xmlns:xlink="http://www.w3.org/1999/xlink" x="0px" y="0px"
	 viewBox="0 0 512 512" style="enable-background:new 0 0 512 512;" xml:space="preserve">
<style type="text/css">
	.st0{fill:#CF1259;}
	.st1{fill:#FFFFFF;}
</style>
<g id="Capa_2">
</g>
<g id="Layer_1">
	<g>
		<g>
			<g>
				<g>
					<g>
						<g>
							<g id="XMLID_1_">
								<g id="XMLID_2_">
									<g id="XMLID_3_">
										<g id="XMLID_4_">
											<g id="XMLID_5_">
												<g id="XMLID_6_">
													<g id="XMLID_7_">
														<g id="XMLID_8_">
															<g id="XMLID_9_">
																<g id="XMLID_10_">
																	<g id="XMLID_11_">
																		<g id="XMLID_12_">
																			<g id="XMLID_13_">
																				<g id="XMLID_14_">
																					<g id="XMLID_15_">
																						<path class="st0" d="M53.1,256c0-112.1,90.8-202.9,202.9-202.9S458.9,143.9,458.9,256
																							c0,46.8-15.8,89.9-42.5,124.2c-37.1,47.9-95.2,10.4-160.5,10.4s-123.3,37.5-160.5-10.4
																							C68.9,345.9,53.1,302.8,53.1,256z"/>
																					</g>
																				</g>
																			</g>
																		</g>
																	</g>
																</g>
															</g>
														</g>
													</g>
												</g>
											</g>
										</g>
									</g>
								</g>
							</g>
						</g>
					</g>
				</g>
			</g>
			<g>
				<g>
					<path class="st1" d="M416.5,369.9v10.3c-33.1,42.6-82.7,71.7-139.3,77.6c-7,0.7-14,1.1-21.2,1.1s-14.2-0.4-21.2-1.1
						c-56.6-5.9-106.2-35-139.3-77.6v-10.3c0-32.8,27.2-59.4,60.7-59.4h199.6C389.3,310.5,416.5,337.1,416.5,369.9L416.5,369.9z"/>
				</g>
				<path class="st0" d="M235.8,418.8c-11.2,0-20.2-9.1-20.2-20.2v-71.3H256v71.3C256,409.7,246.9,418.8,235.8,418.8z"/>
				<g>
					<path class="st0" d="M221.9,337.2c-26.5,0-48.1-21.6-48.1-48.1v-0.7c0-12.5,10.2-22.6,22.6-22.6h117.3
						c12.5,0,22.6,10.2,22.6,22.6v0.7c0,12.8-5,24.9-14.1,34s-21.2,14.1-34,14.1H221.9z"/>
					<path class="st1" d="M313.7,269.3c10.5,0,19.1,8.6,19.1,19.1v0.7c0,24.5-20.1,44.6-44.6,44.6h-66.3
						c-24.5,0-44.6-20.1-44.6-44.6v-0.7c0-10.5,8.6-19.1,19.1-19.1H313.7 M313.7,262.3H196.4c-14.4,0-26.1,11.7-26.1,26.1v0.7
						c0,28.5,23.2,51.6,51.6,51.6h66.3c13.7,0,26.7-5.4,36.5-15.2c9.8-9.8,15.2-22.7,15.2-36.5v-0.7
						C339.9,274,328.2,262.3,313.7,262.3L313.7,262.3z"/>
				</g>
				<g>
					<path class="st1" d="M255.6,294.3c-18.1-2.9-48.3-7.6-67.7-58.1c-0.6,0.1-1.2,0.1-1.8,0.1c-9.7,0-17.9-7.5-18.9-17.5l-1.5-20.5
						c-1-9.2,4.6-20.7,13.6-23.7c1.8-21.5,11.1-39,27-50.6c13.4-9.8,31-15.2,49.7-15.2s36.3,5.4,49.7,15.2
						c15.8,11.6,25.1,29.1,27,50.6c9,3,14.6,14.5,13.6,23.8l-1.4,20.3c-1.1,10-9.2,17.6-18.9,17.6c0,0,0,0,0,0c-0.6,0-1.2,0-1.8-0.1
						c-19.4,50.4-49.6,55.2-67.7,58.1l-0.4,0.1L255.6,294.3z"/>
					<path class="st0" d="M256,111.2c32.7,0,71.3,17.6,74.4,65.4h0c8.4,1.6,14.4,12.7,13.5,21.7l-1.4,20.4
						c-0.9,8.8-8.2,15.4-16.6,15.4c-0.6,0-1.2,0-1.8-0.1l-1.6-0.2c-18.7,50.1-47.9,55.3-66.5,58.3c-18.6-2.9-47.9-8.2-66.5-58.3
						l-1.6,0.2c-0.6,0.1-1.2,0.1-1.8,0.1c-8.4,0-15.6-6.6-16.6-15.4l-1.4-20.4c-0.9-9,5.1-20,13.5-21.7
						C184.7,128.9,223.3,111.2,256,111.2 M256,106.5c-19.2,0-37.3,5.6-51.1,15.7c-16,11.8-25.6,29.3-27.8,50.9
						c-9.2,4-14.7,16-13.8,25.6l1.4,20.3l0,0.1l0,0.1c1.2,11.2,10.3,19.6,21.3,19.6c0.1,0,0.1,0,0.2,0c8.5,21.3,19.5,36.3,33.8,45.8
						c13.1,8.7,26.4,10.8,35.1,12.2l0.7,0.1l0.7-0.1c8.8-1.4,22-3.5,35.1-12.2c14.3-9.5,25.4-24.5,33.8-45.8c0.1,0,0.1,0,0.2,0
						c11,0,20.1-8.4,21.3-19.6l0-0.1l0-0.1l1.4-20.3c1-9.7-4.6-21.6-13.8-25.6c-2.2-21.5-11.7-39.1-27.8-50.9
						C293.3,112,275.2,106.5,256,106.5L256,106.5z"/>
				</g>
				<g>
					<path class="st1" d="M319.7,221.1c-0.1,0-0.1,0-0.2,0c-1-0.1-1.9-0.8-2.1-1.8l-8.6-35.1c-1.6-6.6-7.5-11.1-14.2-11.1
						c-1.4,0-2.8,0.2-4.2,0.6l-13.3,3.9c-6.8,2-13.9,3.1-21.1,3.1s-14.2-1-21.1-3.1l-13.3-3.9c-1.4-0.4-2.8-0.6-4.2-0.6
						c-6.7,0-12.6,4.6-14.2,11.1l-8.6,35.1c-0.2,1-1.1,1.7-2.1,1.8c-0.1,0-0.1,0-0.2,0c-0.9,0-1.8-0.5-2.2-1.4l-8.3-18.6
						c-5.6-12.7-7.4-26.6-5-40.2c4.3-24.2,21.2-44.5,44.3-53c11.2-4.1,22.9-6.2,34.8-6.2s23.6,2.1,34.8,6.2
						c23.1,8.5,40,28.8,44.3,53c2.4,13.6,0.7,27.5-5,40.2l-8.3,18.6C321.4,220.5,320.6,221.1,319.7,221.1z"/>
					<path class="st0" d="M256,104c11.5,0,23,2,34,6.1c22.3,8.2,38.6,27.7,42.8,51.1c2.3,13.1,0.6,26.6-4.8,38.8l-8.3,18.6
						l-8.6-35.1c-1.9-7.8-8.9-12.9-16.5-12.9c-1.6,0-3.2,0.2-4.8,0.7l-13.3,3.9c-6.6,2-13.5,3-20.4,3s-13.7-1-20.4-3l-13.3-3.9
						c-1.6-0.5-3.2-0.7-4.8-0.7c-7.6,0-14.6,5.2-16.5,12.9l-8.6,35.1L184,200c-5.4-12.2-7.1-25.7-4.8-38.8
						c4.1-23.4,20.4-42.9,42.8-51.1C233,106,244.5,104,256,104 M256,99.3c-12.2,0-24.2,2.1-35.7,6.3c-23.8,8.8-41.4,29.8-45.8,54.8
						c-2.5,14.1-0.7,28.5,5.1,41.6l8.3,18.6c0.8,1.7,2.5,2.8,4.3,2.8c0.1,0,0.3,0,0.4,0c2-0.2,3.7-1.6,4.2-3.6l8.6-35.1
						c1.4-5.5,6.2-9.3,11.9-9.3c1.2,0,2.3,0.2,3.5,0.5l13.3,3.9c7.1,2.1,14.4,3.2,21.7,3.2c7.4,0,14.7-1.1,21.7-3.2l13.3-3.9
						c1.1-0.3,2.3-0.5,3.5-0.5c5.6,0,10.5,3.8,11.9,9.3l8.6,35.1c0.5,2,2.2,3.4,4.2,3.6c0.1,0,0.3,0,0.4,0c1.9,0,3.6-1.1,4.3-2.8
						l8.3-18.6c5.8-13.1,7.6-27.5,5.1-41.6c-4.4-25-21.9-46-45.8-54.8C280.2,101.4,268.2,99.3,256,99.3L256,99.3z"/>
				</g>
				<g>
					<path class="st0" d="M186.2,121l1.1-3.6c0.1-0.5,3.5-11.4,13.7-23.1c9.3-10.8,26.4-24.5,54.6-28.1c0.7-0.1,1.4-0.2,2.1-0.3
						c4.5-0.5,9-0.7,13.4-0.7c9.8,0,19.5,1.2,28.9,3.6l0.6,0.1c6.7,1.7,13.4,4.1,19.9,7c21.3,9.6,37.5,23.9,50.6,36.5l3.6,3.5
						l-5.2,2.6l-0.3,0c-1.4,0.5-6,2-11.3,4.7l-1,0.5l-0.8,0.4l-0.8,0.4c-0.3,0.1-0.9,0.5-0.9,0.5l-0.7,0.4l-1.6,0.9l-0.7,0.5
						l-0.7,0.5c-0.6,0.4-1.2,0.8-1.8,1.2l-0.9,0.6l-0.7,0.5c-0.2,0.1-0.6,0.5-0.6,0.5c-0.8,0.7-1.6,1.4-2.4,2.1
						c-0.2,0.2-0.4,0.4-0.6,0.6l-2.6-2.4l2.5,2.5c-0.2,0.2-0.6,0.6-0.6,0.6c-0.9,0.9-1.7,1.9-2.4,2.9c-0.2,0.3-0.3,0.4-0.4,0.6
						c-0.7,1.1-1.2,2.1-1.6,3.1c-0.1,0.3-0.2,0.5-0.2,0.7c-0.1,0.3-0.1,0.4-0.2,0.6l0,0.1c-0.1,0.4-0.2,0.9-0.3,1.3
						c-0.1,0.3-0.1,0.6-0.1,0.9l0,0.1c0,0.3-0.1,0.6-0.1,0.9l0,0.1c0,0.4,0,0.7,0,1l0,0.1c0,0.7,0.1,1.4,0.2,2.1l0,0.2
						c0.1,0.3,0.1,0.6,0.2,0.9l0.1,0.2c0.1,0.3,0.2,0.6,0.3,0.9l0,0.1c0.2,0.5,0.3,0.8,0.5,1.2l2.7,6.4L186.2,121z"/>
					<path class="st1" d="M271.1,68.8c10.1,0,19.4,1.3,28.1,3.5c0.1,0,0.3,0.1,0.5,0.1c0,0,0.1,0,0.1,0c6.9,1.8,13.3,4.1,19.3,6.8
						c21.8,9.9,38.1,24.7,49.6,35.8c0,0,0,0,0,0c0,0,0,0,0,0c0,0-5.6,1.7-12.3,5c0,0,0,0,0,0c-0.3,0.1-0.5,0.3-0.8,0.4
						c-0.1,0-0.1,0.1-0.2,0.1c-0.2,0.1-0.4,0.2-0.7,0.3c-0.1,0-0.1,0.1-0.2,0.1c-0.2,0.1-0.4,0.2-0.6,0.3c-0.1,0-0.1,0.1-0.2,0.1
						c-0.3,0.1-0.5,0.3-0.8,0.4c0,0-0.1,0-0.1,0.1c-0.2,0.1-0.5,0.3-0.7,0.4c-0.1,0.1-0.2,0.1-0.4,0.2c-0.2,0.1-0.3,0.2-0.5,0.3
						c-0.1,0.1-0.3,0.2-0.4,0.3c-0.1,0.1-0.3,0.2-0.4,0.2c-0.2,0.1-0.3,0.2-0.5,0.3c-0.1,0.1-0.2,0.1-0.3,0.2
						c-0.2,0.1-0.3,0.2-0.5,0.3c-0.1,0.1-0.2,0.1-0.3,0.2c-0.6,0.4-1.3,0.9-1.9,1.3c-0.1,0-0.1,0.1-0.2,0.1
						c-0.2,0.1-0.4,0.3-0.6,0.4c-0.1,0.1-0.1,0.1-0.2,0.2c-0.2,0.1-0.4,0.3-0.6,0.4c-0.1,0-0.1,0.1-0.2,0.1
						c-0.2,0.2-0.4,0.3-0.6,0.5c0,0-0.1,0.1-0.1,0.1c-0.9,0.7-1.8,1.5-2.6,2.3c0,0,0,0-0.1,0.1c-0.2,0.2-0.4,0.4-0.6,0.6
						c0,0-0.1,0.1-0.1,0.1c-0.2,0.2-0.4,0.4-0.6,0.6c0,0,0,0-0.1,0.1c-1,1.1-1.9,2.2-2.7,3.3c0,0,0,0-0.1,0.1
						c-0.2,0.2-0.3,0.4-0.4,0.7c0,0,0,0,0,0.1c-0.8,1.2-1.4,2.4-1.9,3.7c0,0,0,0,0,0.1c-0.1,0.2-0.2,0.5-0.3,0.7c0,0,0,0.1,0,0.1
						c-0.1,0.2-0.2,0.5-0.2,0.7c0,0,0,0,0,0c-0.2,0.5-0.3,1.1-0.4,1.6c-0.1,0.4-0.1,0.8-0.2,1.2c0,0,0,0,0,0c0,0.4-0.1,0.8-0.1,1.2
						c0,0.1,0,0.1,0,0.2c0,0.4,0,0.8,0,1.1c0,0,0,0.1,0,0.1c0,0.9,0.1,1.7,0.3,2.6c0,0.1,0,0.1,0,0.2c0.1,0.4,0.2,0.7,0.3,1.1
						c0,0.1,0.1,0.2,0.1,0.3c0.1,0.4,0.2,0.7,0.3,1.1c0,0.1,0.1,0.2,0.1,0.2c0.2,0.5,0.3,0.9,0.5,1.4l-7.1-1.7l-138.1-32.9
						c0,0,12.8-42.1,65.4-48.8v0c0.7-0.1,1.4-0.2,2-0.2C262.5,69,266.9,68.8,271.1,68.8 M271.1,61.8c-4.5,0-9.2,0.3-13.8,0.7
						c-0.8,0.1-1.6,0.2-2.3,0.3l-0.1,0c-0.9,0.1-1.7,0.2-2.5,0.4l-3.4,0.5v0.1c-25.7,4.8-41.7,17.8-50.7,28.3
						c-10.6,12.3-14.2,23.9-14.4,24.4l-2.2,7.1l7.2,1.7l138.1,32.9l7.1,1.7l13.4,3.2l-5.4-12.7c-0.1-0.3-0.2-0.6-0.4-1l-0.1-0.2
						c-0.1-0.2-0.2-0.5-0.2-0.7l-0.1-0.2c-0.1-0.2-0.1-0.5-0.2-0.7l0-0.2c-0.1-0.5-0.2-1-0.2-1.5l0-0.1c0-0.2,0-0.5,0-0.7l0-0.1
						c0-0.2,0-0.5,0-0.7l0-0.1l0,0c0-0.2,0.1-0.5,0.1-0.7c0.1-0.3,0.1-0.7,0.2-1l0,0l0,0c0-0.1,0.1-0.3,0.1-0.4l0-0.1
						c0.1-0.2,0.1-0.3,0.2-0.5l0,0c0.3-0.8,0.8-1.7,1.3-2.5l0,0l0,0c0.1-0.2,0.2-0.3,0.3-0.5l0,0l0,0c0.6-0.8,1.3-1.7,2.1-2.5l0,0
						l0,0c0.1-0.1,0.3-0.3,0.4-0.4l0.1-0.1c0.2-0.2,0.3-0.3,0.5-0.5l0,0l0.1-0.1c0.7-0.6,1.4-1.3,2.2-1.9l0.1-0.1
						c0.2-0.1,0.3-0.3,0.5-0.4l0,0l0.1-0.1c0.2-0.1,0.3-0.3,0.5-0.4l0.1-0.1c0.2-0.1,0.4-0.3,0.5-0.4l0.1,0l0.1-0.1
						c0.5-0.4,1.1-0.8,1.7-1.1l0.1-0.1l0.1-0.1c0.1-0.1,0.3-0.2,0.4-0.3l0.3-0.2l0.4-0.3l0.4-0.2l0.4-0.2l0.4-0.2l0.1-0.1l0.2-0.1
						c0.2-0.1,0.4-0.3,0.7-0.4l0.1,0c0.3-0.2,0.5-0.3,0.8-0.4l0.1,0l0.1-0.1c0.2-0.1,0.4-0.2,0.6-0.3l0.1-0.1l0.1,0
						c0.2-0.1,0.4-0.2,0.6-0.3l0.2-0.1c0.2-0.1,0.5-0.2,0.7-0.4c6-3,11.2-4.6,11.2-4.6l11.5-3.5l-8.4-8l-0.2-0.2
						c-13.3-12.8-29.8-27.3-51.6-37.2c-6.7-3-13.6-5.5-20.5-7.2l-0.1,0l-0.3-0.1l-0.1,0C291.2,63,281.2,61.8,271.1,61.8L271.1,61.8z
						"/>
				</g>
				<g>
					<g>
						<path class="st1" d="M330.9,180.8c-0.5,0-1.1,0-1.6-0.1c-0.6-0.1-1.3-0.1-1.9-0.3L185.8,153c-4.8-0.9-9-3.7-11.8-7.8
							c-2.8-4.1-3.8-9-2.8-13.9l0.8-4.1c1.7-8.7,9.3-15,18.2-15c1.2,0,2.4,0.1,3.5,0.3L335.3,140c10,1.9,16.6,11.7,14.6,21.7
							l-0.8,4.1c-1,5.3-4.3,9.9-9.1,12.6C337.2,180,334.1,180.8,330.9,180.8C330.9,180.8,330.9,180.8,330.9,180.8z"/>
						<path class="st0" d="M190.2,114.6c1,0,2,0.1,3.1,0.3l141.6,27.5c8.7,1.7,14.5,10.2,12.8,18.9l-0.8,4.1
							c-0.9,4.8-4,8.7-7.9,10.9c-2.4,1.3-5.1,2.1-7.9,2.1c-0.5,0-1,0-1.4-0.1c-0.5,0-1.1-0.1-1.6-0.2l-141.6-27.5
							c-8.7-1.7-14.5-10.2-12.8-18.9l0.8-4.1C175.8,119.9,182.6,114.6,190.2,114.6 M190.2,109.8c-10,0-18.6,7.1-20.5,16.9l-0.8,4.1
							c-2.2,11.3,5.2,22.3,16.5,24.5l141.6,27.5c0.7,0.1,1.4,0.2,2.1,0.3c0.6,0.1,1.2,0.1,1.9,0.1c3.6,0,7.1-0.9,10.3-2.7
							c5.4-3,9.1-8.2,10.3-14.2l0.8-4.1c2.2-11.3-5.2-22.3-16.5-24.5l-141.6-27.5C192.9,109.9,191.5,109.8,190.2,109.8L190.2,109.8z
							"/>
					</g>
					<g>
						<path class="st1" d="M365.7,144.1c-1.2,0-2.4-0.1-3.6-0.3c-5.8-0.9-10.9-4.1-14.4-8.9c-3.4-4.8-4.8-10.6-3.9-16.4
							c1.7-10.7,10.9-18.5,21.7-18.5c1.2,0,2.4,0.1,3.6,0.3c5.8,0.9,10.9,4.1,14.4,8.9c3.4,4.8,4.8,10.6,3.9,16.4
							C385.7,136.3,376.6,144.1,365.7,144.1C365.7,144.1,365.7,144.1,365.7,144.1z"/>
						<path class="st0" d="M365.7,102.3c1,0,2.1,0.1,3.2,0.3c10.7,1.7,18,11.8,16.3,22.6c-1.6,9.7-9.9,16.5-19.4,16.5
							c-1,0-2.1-0.1-3.2-0.3c-10.7-1.7-18-11.8-16.3-22.6C347.9,109.2,356.2,102.3,365.7,102.3 M365.7,97.6
							c-12,0-22.2,8.6-24.1,20.5c-2.2,13.3,6.9,25.9,20.2,28c1.3,0.2,2.6,0.3,3.9,0.3c12,0,22.2-8.6,24.1-20.5
							c1-6.4-0.5-12.9-4.3-18.2c-3.8-5.3-9.5-8.8-15.9-9.8C368.3,97.7,367,97.6,365.7,97.6L365.7,97.6z"/>
					</g>
				</g>
			</g>
		</g>
		<g>
			<path class="st0" d="M256,61c26.3,0,51.9,5.2,75.9,15.3c23.2,9.8,44.1,23.9,62,41.8c17.9,17.9,32,38.8,41.8,62
				c10.2,24,15.3,49.6,15.3,75.9s-5.2,51.9-15.3,75.9c-9.8,23.2-23.9,44.1-41.8,62c-17.9,17.9-38.8,32-62,41.8
				c-24,10.2-49.6,15.3-75.9,15.3s-51.9-5.2-75.9-15.3c-23.2-9.8-44.1-23.9-62-41.8c-17.9-17.9-32-38.8-41.8-62
				C66.2,307.9,61,282.3,61,256s5.2-51.9,15.3-75.9c9.8-23.2,23.9-44.1,41.8-62c17.9-17.9,38.8-32,62-41.8
				C204.1,66.2,229.7,61,256,61 M256,53.1C143.9,53.1,53.1,143.9,53.1,256S143.9,458.9,256,458.9S458.9,368.1,458.9,256
				S368.1,53.1,256,53.1L256,53.1z"/>
		</g>
	</g>
</g>
</svg>
